<svg width="25" height="24" viewBox="0 0 25 24" fill="none" xmlns="http://www.w3.org/2000/svg">
<g clip-path="url(#clip0_2462_99)">
<path d="M8.125 20.25C8.125 20.8023 7.67728 21.25 7.125 21.25C6.57272 21.25 6.125 20.8023 6.125 20.25C6.125 19.6977 6.57272 19.25 7.125 19.25C7.67728 19.25 8.125 19.6977 8.125 20.25Z" stroke="#70757F"/>
<path d="M19.375 20.25C19.375 20.8023 18.9273 21.25 18.375 21.25C17.8227 21.25 17.375 20.8023 17.375 20.25C17.375 19.6977 17.8227 19.25 18.375 19.25C18.9273 19.25 19.375 19.6977 19.375 20.25Z" stroke="#70757F"/>
<path d="M4.125 6H20.4764C20.5863 6 20.6948 6.02413 20.7943 6.07068C20.8938 6.11724 20.9818 6.18508 21.0522 6.26941C21.1226 6.35374 21.1736 6.45251 21.2016 6.55872C21.2296 6.66494 21.234 6.77601 21.2143 6.88409L19.5789 15.8841C19.5475 16.0569 19.4564 16.2132 19.3216 16.3258C19.1867 16.4383 19.0167 16.5 18.841 16.5H6.66737C6.49179 16.5 6.32178 16.4384 6.18695 16.3259C6.05213 16.2135 5.96103 16.0573 5.92953 15.8845L3.55541 2.86545C3.52392 2.69273 3.43282 2.53652 3.29799 2.42406C3.16317 2.3116 2.99316 2.25 2.81758 2.25H1.125" stroke="#70757F" stroke-linecap="round" stroke-linejoin="round"/>
</g>
<defs>
<clipPath id="clip0_2462_99">
<rect width="24" height="24" fill="white" transform="translate(0.375)"/>
</clipPath>
</defs>
</svg>
