<svg width="25" height="24" viewBox="0 0 25 24" fill="none" xmlns="http://www.w3.org/2000/svg">
<g clip-path="url(#clip0_2462_86)">
<path d="M15.1245 19.4993V14.9992C15.1245 14.8003 15.0454 14.6096 14.9048 14.4689C14.7641 14.3283 14.5734 14.2492 14.3745 14.2492H11.3745C11.1755 14.2492 10.9848 14.3283 10.8441 14.4689C10.7035 14.6096 10.6245 14.8003 10.6245 14.9992V19.4993C10.6245 19.6982 10.5454 19.889 10.4048 20.0296C10.2642 20.1703 10.0734 20.2493 9.87454 20.2493L5.37509 20.2499C5.27659 20.2499 5.17906 20.2305 5.08805 20.1929C4.99705 20.1552 4.91436 20.0999 4.8447 20.0303C4.77505 19.9606 4.7198 19.878 4.6821 19.787C4.6444 19.696 4.625 19.5984 4.625 19.4999V10.8318C4.625 10.7273 4.64683 10.6239 4.6891 10.5284C4.73137 10.4328 4.79314 10.3471 4.87045 10.2769L12.3699 3.45797C12.508 3.33244 12.6879 3.26288 12.8745 3.26288C13.061 3.26287 13.2409 3.33242 13.379 3.45793L20.8795 10.2768C20.9568 10.3471 21.0186 10.4328 21.0609 10.5284C21.1032 10.624 21.125 10.7273 21.125 10.8318V19.4999C21.125 19.5984 21.1056 19.696 21.0679 19.787C21.0302 19.878 20.975 19.9606 20.9053 20.0303C20.8356 20.0999 20.753 20.1552 20.6619 20.1929C20.5709 20.2306 20.4734 20.2499 20.3749 20.2499L15.8744 20.2493C15.6755 20.2493 15.4847 20.1703 15.3441 20.0296C15.2035 19.889 15.1244 19.6982 15.1245 19.4993V19.4993Z" stroke="#70757F" stroke-linecap="round" stroke-linejoin="round"/>
</g>
<defs>
<clipPath id="clip0_2462_86">
<rect width="24" height="24" fill="white" transform="translate(0.875)"/>
</clipPath>
</defs>
</svg>
