<svg width="25" height="25" viewBox="0 0 25 25" fill="none" xmlns="http://www.w3.org/2000/svg">
<path d="M11.1977 1.78228C11.842 0.900502 13.158 0.900502 13.8023 1.78228L15.6196 4.2694C15.9375 4.70443 16.4516 4.95201 16.9899 4.92929L20.0675 4.79944C21.1586 4.7534 21.9791 5.78227 21.6914 6.83578L20.88 9.80731C20.7381 10.3271 20.865 10.8834 21.2184 11.2901L23.2388 13.6153C23.9551 14.4396 23.6623 15.7226 22.6592 16.1546L19.8301 17.3729C19.3352 17.586 18.9794 18.0321 18.8818 18.562L18.3236 21.5913C18.1257 22.6653 16.94 23.2363 15.9769 22.7214L13.2605 21.2691C12.7853 21.015 12.2147 21.015 11.7395 21.2691L9.02308 22.7214C8.05999 23.2363 6.87434 22.6653 6.67643 21.5913L6.1182 18.562C6.02056 18.0321 5.66479 17.586 5.16994 17.3729L2.34078 16.1546C1.33774 15.7226 1.04491 14.4396 1.7612 13.6153L3.78158 11.2901C4.13497 10.8834 4.26194 10.3271 4.12001 9.80731L3.30858 6.83578C3.0209 5.78227 3.8414 4.7534 4.93251 4.79944L8.0101 4.92929C8.54841 4.95201 9.06252 4.70443 9.38039 4.2694L11.1977 1.78228Z" fill="#F47DDA"/>
<g clip-path="url(#clip0_1_436)">
<path d="M16.0784 8.92087L9.72758 15.2717" stroke="white" stroke-width="0.705645" stroke-linecap="round" stroke-linejoin="round"/>
<path d="M10.6096 11.0378C11.2916 11.0378 11.8445 10.4849 11.8445 9.80293C11.8445 9.12093 11.2916 8.56805 10.6096 8.56805C9.92763 8.56805 9.37476 9.12093 9.37476 9.80293C9.37476 10.4849 9.92763 11.0378 10.6096 11.0378Z" stroke="white" stroke-width="0.705645" stroke-linecap="round" stroke-linejoin="round"/>
<path d="M15.1963 15.6245C15.8783 15.6245 16.4312 15.0716 16.4312 14.3896C16.4312 13.7076 15.8783 13.1548 15.1963 13.1548C14.5143 13.1548 13.9614 13.7076 13.9614 14.3896C13.9614 15.0716 14.5143 15.6245 15.1963 15.6245Z" stroke="white" stroke-width="0.705645" stroke-linecap="round" stroke-linejoin="round"/>
</g>
<defs>
<clipPath id="clip0_1_436">
<rect width="11.2903" height="11.2903" fill="white" transform="translate(7.25781 6.45117)"/>
</clipPath>
</defs>
</svg>
